HIERARCHY
ROOT Hips
{
  OFFSET 22.3925 88.729 2.90292
  CHANNELS 6 Xposition Yposition Zposition Zrotation Xrotation Yrotation
  JOINT ToSpine
  {
    OFFSET -2.69724 7.43032 -0.144315
    CHANNELS 3 Zrotation Xrotation Yrotation
    JOINT Spine
    {
      OFFSET -0.0310711 10.7595 1.96963
      CHANNELS 3 Zrotation Xrotation Yrotation
      JOINT Spine1
      {
        OFFSET 13.1342 3.43533 0.764692
        CHANNELS 3 Zrotation Xrotation Yrotation
        JOINT Neck
        {
          OFFSET 29.8703 7.82586 -0.130764
          CHANNELS 3 Zrotation Xrotation Yrotation
          JOINT Head
          {
            OFFSET 9.52751 0.295786 -0.907742
            CHANNELS 3 Zrotation Xrotation Yrotation
            End Site
            {
              OFFSET 16.4037 0.713936 2.7358
            }
          }
        }
        JOINT LeftShoulder
        {
          OFFSET 27.5574 4.95586 2.47156
          CHANNELS 3 Zrotation Xrotation Yrotation
          JOINT LeftArm
          {
            OFFSET 1.20734 -0.998971 20.1238
            CHANNELS 3 Zrotation Xrotation Yrotation
            JOINT LeftForeArm
            {
              OFFSET 26.8049 -0.0536703 -0.155908
              CHANNELS 3 Zrotation Xrotation Yrotation
              JOINT LeftHand
              {
                OFFSET 26.6817 0 0.320147
                CHANNELS 3 Zrotation Xrotation Yrotation
                End Site
                {
                  OFFSET 18.6119 0 0.382219
                }
              }
            }
          }
        }
        JOINT RightShoulder
        {
          OFFSET 27.5927 4.71444 -2.65209
          CHANNELS 3 Zrotation Xrotation Yrotation
          JOINT RightArm
          {
            OFFSET 2.83739 -1.17114 -18.7564
            CHANNELS 3 Zrotation Xrotation Yrotation
            JOINT RightForeArm
            {
              OFFSET 28.839 -0.0548439 1.22491
              CHANNELS 3 Zrotation Xrotation Yrotation
              JOINT RightHand
              {
                OFFSET 26.5114 0 -0.101894
                CHANNELS 3 Zrotation Xrotation Yrotation
                End Site
                {
                  OFFSET 18.2168 0 0
                }
              }
            }
          }
        }
      }
    }
  }
  JOINT LeftUpLeg
  {
    OFFSET -4.76168 -1.9167 -10.2353
    CHANNELS 3 Zrotation Xrotation Yrotation
    JOINT LeftLeg
    {
      OFFSET 2.55951 -42.0585 -8.02213
      CHANNELS 3 Zrotation Xrotation Yrotation
      JOINT LeftFoot
      {
        OFFSET 3.16357 -42.5282 -3.95426
        CHANNELS 3 Zrotation Xrotation Yrotation
        JOINT LeftToeBase
        {
          OFFSET 0.346054 -6.02161 12.8035
          CHANNELS 3 Zrotation Xrotation Yrotation
          End Site
          {
            OFFSET 0.134235 -1.35082 5.13018
          }
        }
      }
    }
  }
  JOINT RightUpLeg
  {
    OFFSET -4.94151 -1.41743 10.6446
    CHANNELS 3 Zrotation Xrotation Yrotation
    JOINT RightLeg
    {
      OFFSET -2.56294 -42.0364 -7.94377
      CHANNELS 3 Zrotation Xrotation Yrotation
      JOINT RightFoot
      {
        OFFSET -3.0952 -42.555 -4.02241
        CHANNELS 3 Zrotation Xrotation Yrotation
        JOINT RightToeBase
        {
          OFFSET -0.0828122 -6.13587 12.8035
          CHANNELS 3 Zrotation Xrotation Yrotation
          End Site
          {
            OFFSET -0.131328 -1.35082 5.13018
          }
        }
      }
    }
  }
}
MOTION
Frames:	17
Frame Time:	0.0333333
13.8942 91.2866 2.40544 72.7016 -33.0915 -7.5373 -70.1915 0 88.8779 90.1366 72.9374 -5.02809 -0.119256 21.2718 6.31714 -120.126 34.55 153.488 179.005 79.4742 -148.572 0.49429 -14.8377 -21.5617 -54.2202 36.0266 -140.195 26.8879 -5.97175 -100.844 0.420957 0.000576148 0.35866 -1.65907 6.95338 38.3324 -132.479 -4.86568 94.3704 12.7423 -3.07074 76.5525 0.58676 0.000330058 0.064665 -44.5705 12.1672 95.352 -4.8442 53.2238 -10.2873 3.5284 -17.2254 -1.38642 4.77876 -12.2763 13.7893 -40.6733 -16.2332 73.0011 1.92211 44.7832 -1.6567 -2.6837 -7.55616 0.904599 1.30991 -5.2104 -5.86462 
13.8832 91.3348 2.41627 72.6256 -33.1006 -7.62745 -70.1915 0 88.8779 88.507 73.0285 -3.70616 0.378392 21.2195 6.6877 -120.721 34.8109 154.087 178.167 79.4329 -147.905 0.482638 -14.7956 -21.9606 -54.4944 35.6267 -140.338 26.8223 -5.88987 -100.722 0.420957 0.000576148 0.35866 -1.62264 7.0008 37.6404 -132.576 -5.24942 94.1905 12.8348 -3.1097 76.4895 0.58676 0.000330058 0.064665 -44.5058 12.0802 95.2859 -4.89833 53.3147 -10.5504 2.9 -17.6613 -1.42881 4.4195 -11.7901 14.3886 -40.6206 -16.3061 72.9765 1.88628 44.7502 -1.88189 -2.91054 -7.44327 0.91392 1.19897 -5.28471 -4.87101 
13.9409 91.3589 2.42712 72.6688 -33.1145 -7.61351 -70.1915 0 88.8779 86.4035 73.0826 -2.00731 1.16633 21.075 7.28072 -121.515 35.312 155.258 174.957 79.32 -144.979 0.458775 -14.7306 -22.7324 -55.2731 34.5016 -140.403 26.5127 -5.72702 -100.563 0.420957 0.000576148 0.35866 -1.61677 7.20924 36.838 -132.457 -5.51017 94.3729 12.4004 -3.0887 76.135 0.58676 0.000330058 0.064665 -44.575 12.0583 95.2655 -4.93816 53.4324 -10.6387 1.23536 -18.6766 -1.54257 3.59645 -10.5272 14.4524 -40.7413 -16.199 73.097 1.88003 44.6634 -1.85315 -3.49523 -7.02371 0.930477 1.32947 -6.20598 -5.41138 
14.0039 91.3892 2.40377 72.7202 -33.1346 -7.55256 -70.1915 0 88.8779 86.0453 73.0002 -1.16115 1.64729 21.2087 6.55112 -121.635 35.1903 155.052 176.154 79.3124 -146.269 0.484899 -14.6334 -22.3983 -55.3964 34.2775 -140.563 26.5241 -5.66984 -100.449 0.420957 0.000576148 0.35866 -1.62767 7.08366 37.4207 -132.434 -5.36579 94.7509 11.9867 -3.02025 75.9794 0.58676 0.000330058 0.064665 -44.6964 12.0774 95.291 -4.93651 53.3973 -10.6976 0.686001 -18.8515 -1.58043 3.54039 -10.4205 14.3358 -40.9226 -16.2962 72.8889 1.85861 44.5533 -1.91022 -3.33966 -7.20512 0.929396 1.17171 -5.60533 -4.43324 
14.059 91.4371 2.43202 72.7066 -33.1172 -7.59466 -70.1915 0 88.8779 85.6072 72.939 -0.483182 1.80858 21.2728 6.11923 -121.833 35.0161 155.044 177.777 79.2132 -148.153 0.496465 -14.5617 -22.3359 -55.3703 34.3081 -140.562 26.7431 -5.71158 -100.425 0.420957 0.000576148 0.35866 -1.64162 7.12156 37.4856 -132.453 -5.40979 94.7717 12.1943 -3.10355 75.8571 0.58676 0.000330058 0.064665 -44.7194 12.1043 95.3972 -4.94709 53.3767 -10.8271 1.07276 -18.727 -1.55544 3.53201 -10.41 14.3509 -41.0184 -16.3825 72.7905 1.84921 44.4076 -1.85721 -3.42071 -7.0779 0.928734 1.16741 -5.70453 -4.2958 
14.1416 91.4102 2.42022 72.8222 -33.15 -7.58016 -70.1915 0 88.8779 85.5446 72.914 -0.429094 1.78046 21.2558 6.11753 -121.797 34.8941 155.024 178.293 79.1277 -148.496 0.515716 -14.4538 -22.1904 -55.279 34.4645 -140.443 26.6744 -5.77083 -100.569 0.420957 0.000576148 0.35866 -1.65634 7.11253 37.7243 -132.249 -5.2825 94.9728 12.3952 -3.16169 75.8339 0.58676 0.000330058 0.064665 -44.9671 12.1328 95.6624 -4.887 53.2297 -10.6313 1.01786 -18.7492 -1.55942 3.62456 -10.4795 13.861 -41.1413 -16.4322 72.8645 1.88762 44.4633 -1.62956 -3.1637 -7.24765 0.919752 1.23279 -5.58791 -4.95998 
14.2421 91.4322 2.41927 72.9336 -33.0239 -7.59884 -70.1915 0 88.8779 85.1646 72.8799 -0.0539512 1.83289 21.2577 6.0061 -121.898 34.8466 154.912 178.751 79.121 -148.971 0.505566 -14.5532 -22.1334 -55.2751 34.6416 -140.323 26.9019 -5.79164 -100.501 0.420957 0.000576148 0.35866 -1.69799 7.18324 38.0593 -132.154 -4.93202 95.0061 12.7734 -3.25421 75.8596 0.58676 0.000330058 0.064665 -45.1534 11.9806 95.7318 -4.88073 53.1348 -10.7732 0.947182 -18.8379 -1.56879 3.5313 -10.3488 13.9601 -41.2668 -16.6382 72.8644 1.89383 44.5153 -1.62933 -3.0313 -7.34875 0.916259 1.2243 -5.47234 -4.96749 
14.3263 91.4592 2.46536 73.0562 -32.9479 -7.60982 -70.1915 0 88.8779 84.5666 72.9241 0.494938 1.96939 21.3008 6.02685 -122.212 35.0467 154.93 179.536 79.3056 -150.155 0.481336 -14.6827 -22.3322 -55.3238 34.5711 -140.3 26.8071 -5.72931 -100.429 0.420957 0.000576148 0.35866 -1.70131 7.29937 37.7027 -132.213 -4.90051 94.6029 12.9184 -3.23346 76.0882 0.58676 0.000330058 0.064665 -45.3432 11.8721 95.8094 -4.87202 53.0482 -10.8762 1.16597 -18.6268 -1.54466 3.68204 -10.5971 14.0416 -41.4119 -16.7287 72.9501 1.85339 44.4975 -1.90124 -3.25974 -7.16721 0.922059 1.21286 -5.93577 -4.52856 
14.4429 91.4393 2.47384 73.191 -32.5426 -7.34031 -70.1915 0 88.8779 84.0953 72.8308 1.00969 1.99762 21.177 6.15819 -121.95 35.0647 154.761 179.201 79.382 -149.579 0.4929 -14.6122 -22.2659 -55.1298 34.4581 -140.397 26.559 -5.70146 -100.493 0.420957 0.000576148 0.35866 -1.67055 7.14049 37.826 -132.28 -4.80846 94.5137 12.5108 -3.08359 76.2693 0.58676 0.000330058 0.064665 -45.3064 11.8113 95.5352 -4.87307 53.0758 -10.8296 1.11448 -18.6667 -1.54959 3.71258 -10.5949 13.7128 -41.7198 -16.7618 72.7789 1.81371 44.4382 -2.13207 -3.17985 -7.20617 0.918769 1.23987 -6.10818 -4.64982 
14.4779 91.5147 2.53808 73.3085 -32.3326 -7.28289 -70.1915 0 88.8779 83.3541 72.9492 1.34942 2.00833 21.1242 6.76149 -122.089 35.2659 154.803 -179.909 79.5751 -150.432 0.441505 -14.8435 -22.7938 -55.1707 34.4488 -140.341 26.7545 -5.66508 -100.333 0.420957 0.000576148 0.35866 -1.61361 7.05594 37.3179 -132.444 -4.82513 94.3408 12.6373 -3.13376 76.1976 0.58676 0.000330058 0.064665 -45.382 11.6399 95.3506 -4.89232 53.0379 -11.0692 1.19453 -18.7566 -1.55324 3.42331 -10.2305 14.2847 -41.9605 -16.7711 72.8337 1.79504 44.2731 -2.13301 -3.40387 -7.02537 0.925189 1.31709 -6.46302 -5.09954 
14.5364 91.4772 2.49079 73.2932 -32.0162 -7.06346 -70.1915 0 88.8779 82.9645 72.8899 1.48863 1.80456 20.8721 7.49032 -122.365 35.3682 155.133 179.429 79.527 -149.961 0.463186 -14.7055 -22.7043 -54.8771 34.5487 -140.58 27.0276 -5.72851 -100.325 0.420957 0.000576148 0.35866 -1.59371 7.15903 36.684 -132.51 -5.10409 93.9136 12.924 -3.21506 76.1651 0.58676 0.000330058 0.064665 -45.2109 11.7343 95.2443 -4.93169 53.123 -11.2249 0.930063 -18.8355 -1.56906 3.55386 -10.4012 14.0701 -42.0676 -16.765 72.608 1.7768 44.2214 -2.25963 -3.54315 -6.83424 0.925708 1.37668 -6.88742 -5.36109 
14.5941 91.492 2.46549 73.3722 -31.6745 -6.72115 -70.1915 0 88.8779 83.0534 72.8576 1.55135 1.75593 20.7952 7.67411 -122.201 35.3841 154.961 178.49 79.5676 -148.977 0.440845 -14.8198 -22.8827 -54.7104 34.2046 -140.61 27.1058 -5.79345 -100.41 0.420957 0.000576148 0.35866 -1.57283 7.09336 36.6108 -132.752 -4.92404 93.9446 12.5122 -3.19898 75.7906 0.58676 0.000330058 0.064665 -45.0323 11.8984 95.0803 -4.98417 53.2781 -11.3491 1.17982 -18.7825 -1.55556 3.55287 -10.3589 13.8078 -42.3559 -16.736 72.3158 1.72797 44.07 -2.53136 -3.16146 -6.85503 0.89986 1.31379 -6.79707 -4.82583 
14.6337 91.4881 2.35699 73.3918 -31.3159 -6.51087 -70.1915 0 88.8779 83.1444 72.7807 2.02238 2.0713 20.9075 7.05555 -122.212 35.2665 154.126 -178.421 79.7869 -151.865 0.436416 -14.8734 -22.8216 -54.4954 33.6088 -140.815 26.7009 -5.64369 -100.317 0.420957 0.000576148 0.35866 -1.53809 6.85387 36.9389 -133.246 -4.75622 94.3005 12.2609 -3.31451 75.0161 0.58676 0.000330058 0.064665 -44.7178 11.9466 95.0407 -5.06183 53.5408 -11.5462 1.3762 -18.6149 -1.53637 3.68994 -10.5837 13.8708 -42.5055 -16.9353 71.9431 1.71573 43.9622 -2.56445 -3.44835 -6.50185 0.902327 1.31411 -7.34236 -4.37269 
14.6292 91.4284 2.10514 73.1788 -30.9915 -6.51156 -70.1915 0 88.8779 83.6335 72.8161 1.5282 1.72763 20.8595 7.31963 -122.2 35.2763 153.68 -176.889 79.9551 -153.145 0.433835 -14.9557 -22.6328 -54.0332 33.2513 -141.382 25.6416 -5.32446 -100.196 0.420957 0.000576148 0.35866 -1.40788 6.61102 35.8557 -133.884 -5.05147 94.434 12.6789 -3.74041 73.7492 0.58676 0.000330058 0.064665 -44.0302 11.879 95.0341 -5.1218 54.0084 -11.2032 1.59267 -18.3904 -1.5125 3.93972 -10.9206 13.4806 -42.1205 -16.9482 72.3722 1.61043 44.066 -3.35522 -2.60225 -6.36479 0.832636 1.2016 -7.23022 -3.3573 
14.6076 91.3123 1.64047 72.9454 -31.0466 -6.99639 -70.1915 0 88.8779 86.6437 72.7369 -1.38925 0.697885 20.8512 6.95241 -121.851 34.9463 153.309 -176.574 79.7947 -152.878 0.487246 -14.6561 -22.2693 -52.9952 32.826 -141.713 23.5998 -4.81536 -100.124 0.420957 0.000576148 0.35866 -1.51215 6.92793 36.3036 -134.188 -4.38614 95.4611 13.4647 -4.63693 71.2717 0.58676 0.000330058 0.064665 -43.3439 11.6123 95.6576 -5.28566 54.7653 -11.1421 1.19576 -18.3501 -1.52355 4.07518 -11.2422 14.2787 -41.1581 -17.0402 73.9335 1.58969 44.5355 -3.78863 -2.0153 -5.72647 0.751572 1.1913 -7.52655 -2.95754 
14.4991 91.2517 0.817884 72.3911 -31.9244 -8.36811 -70.1915 0 88.8779 88.4205 73.0104 -3.70966 0.154576 21.109 6.95379 -121.988 34.7484 153.068 -176.446 79.643 -152.215 0.45752 -15.0564 -21.8034 -50.9823 31.6511 -142.537 18.6212 -3.45888 -99.3627 0.420957 0.000576148 0.35866 -1.32014 6.57297 34.6486 -135.295 -5.98987 96.7075 13.6643 -5.61298 68.0311 0.58676 0.000330058 0.064665 -42.9947 11.2509 97.5394 -5.33298 54.9962 -11.0963 1.26947 -18.5508 -1.5357 3.52614 -10.4684 14.7872 -39.4648 -16.7661 77.2165 1.52868 44.5917 -4.23278 -2.00867 -4.37465 0.667113 1.34171 -8.7556 -3.31352 
14.4675 91.4047 -0.381286 71.4585 -34.8647 -10.2818 -70.1915 0 88.8779 88.4186 74.275 -4.9181 0.677145 21.8491 8.75445 -122.625 34.9716 152.884 -174.399 79.8399 -153.146 0.2462 -16.4243 -22.5884 -48.733 28.8697 -143.796 3.54814 -0.436443 -96.9184 0.420957 0.000576148 0.35866 -0.786631 5.62913 28.8374 -137.16 -10.8587 95.7478 12.9409 -5.6528 66.7622 0.58676 0.000330058 0.064665 -43.5287 11.3121 100.436 -5.05776 54.3198 -10.1363 0.988653 -18.5108 -1.54257 3.34277 -10.1806 14.7684 -38.1773 -15.4499 80.7142 1.37664 42.7242 -4.23198 -1.12977 -3.16106 0.502227 1.07269 -6.87825 -2.22457 
